HIERARCHY
ROOT hip
{
  OFFSET 0 0 0
  CHANNELS 6 Xposition Yposition Zposition Zrotation Yrotation Xrotation
  JOINT abdomen
  {
    OFFSET 0 20.6881 -0.73152
    CHANNELS 3 Zrotation Xrotation Yrotation
    JOINT chest
    {
      OFFSET 0 11.7043 -0.48768
      CHANNELS 3 Zrotation Xrotation Yrotation
      JOINT neck
      {
        OFFSET 0 22.1894 -2.19456
        CHANNELS 3 Zrotation Xrotation Yrotation
        JOINT head
        {
          OFFSET -0.24384 7.07133 1.2192
          CHANNELS 3 Zrotation Xrotation Yrotation
          JOINT leftEye
          {
            OFFSET 4.14528 8.04674 8.04672
            CHANNELS 3 Zrotation Xrotation Yrotation
            End Site
            {
              OFFSET 1 0 0
            }
          }
          JOINT rightEye
          {
            OFFSET -3.6576 8.04674 8.04672
            CHANNELS 3 Zrotation Xrotation Yrotation
            End Site
            {
              OFFSET 1 0 0
            }
          }
        }
      }
      JOINT rCollar
      {
        OFFSET -2.68224 19.2634 -4.8768
        CHANNELS 3 Zrotation Xrotation Yrotation
        JOINT rShldr
        {
          OFFSET -8.77824 -1.95073 1.46304
          CHANNELS 3 Zrotation Xrotation Yrotation
          JOINT rForeArm
          {
            OFFSET -28.1742 -1.7115 0.48768
            CHANNELS 3 Zrotation Xrotation Yrotation
            JOINT rHand
            {
              OFFSET -22.5879 0.773209 7.07136
              CHANNELS 3 Zrotation Xrotation Yrotation
              JOINT rThumb1
              {
                OFFSET -1.2192 -0.487915 3.41376
                CHANNELS 3 Zrotation Xrotation Yrotation
                JOINT rThumb2
                {
                  OFFSET -3.37035 -0.52449 3.41376
                  CHANNELS 3 Zrotation Xrotation Yrotation
                  End Site
                  {
                    OFFSET -1.78271 -1.18214 1.43049
                  }
                }
              }
              JOINT rIndex1
              {
                OFFSET -7.75947 0.938293 5.60832
                CHANNELS 3 Zrotation Xrotation Yrotation
                JOINT rIndex2
                {
                  OFFSET -2.54057 -0.884171 1.56538
                  CHANNELS 3 Zrotation Xrotation Yrotation
                  End Site
                  {
                    OFFSET -1.62519 -0.234802 1.16502
                  }
                }
              }
              JOINT rMid1
              {
                OFFSET -8.24714 1.18213 3.41376
                CHANNELS 3 Zrotation Xrotation Yrotation
                JOINT rMid2
                {
                  OFFSET -3.10165 -0.590103 1.0647
                  CHANNELS 3 Zrotation Xrotation Yrotation
                  End Site
                  {
                    OFFSET -2.48547 -0.328903 0.83742
                  }
                }
              }
              JOINT rRing1
              {
                OFFSET -8.82822 0.546677 1.51678
                CHANNELS 3 Zrotation Xrotation Yrotation
                JOINT rRing2
                {
                  OFFSET -2.60934 -0.819778 -0.0198488
                  CHANNELS 3 Zrotation Xrotation Yrotation
                  End Site
                  {
                    OFFSET -2.33842 -0.294052 0.168128
                  }
                }
              }
              JOINT rPinky1
              {
                OFFSET -8.27202 -0.0477905 -0.4584
                CHANNELS 3 Zrotation Xrotation Yrotation
                JOINT rPinky2
                {
                  OFFSET -1.82734 -0.647385 -0.700984
                  CHANNELS 3 Zrotation Xrotation Yrotation
                  End Site
                  {
                    OFFSET -1.69225 -0.51767 -0.607171
                  }
                }
              }
            }
          }
        }
      }
      JOINT lCollar
      {
        OFFSET 2.68224 19.2634 -4.8768
        CHANNELS 3 Zrotation Xrotation Yrotation
        JOINT lShldr
        {
          OFFSET 8.77824 -1.95073 1.46304
          CHANNELS 3 Zrotation Xrotation Yrotation
          JOINT lForeArm
          {
            OFFSET 28.1742 -1.7115 0.48768
            CHANNELS 3 Zrotation Xrotation Yrotation
            JOINT lHand
            {
              OFFSET 22.5879 0.773209 7.07136
              CHANNELS 3 Zrotation Xrotation Yrotation
              JOINT lThumb1
              {
                OFFSET 1.2192 -0.487915 3.41376
                CHANNELS 3 Zrotation Xrotation Yrotation
                JOINT lThumb2
                {
                  OFFSET 3.37035 -0.52449 3.41376
                  CHANNELS 3 Zrotation Xrotation Yrotation
                  End Site
                  {
                    OFFSET 1.78271 -1.18214 1.43049
                  }
                }
              }
              JOINT lIndex1
              {
                OFFSET 7.75947 0.938293 5.60832
                CHANNELS 3 Zrotation Xrotation Yrotation
                JOINT lIndex2
                {
                  OFFSET 2.54057 -0.884171 1.56538
                  CHANNELS 3 Zrotation Xrotation Yrotation
                  End Site
                  {
                    OFFSET 1.62519 -0.234802 1.16502
                  }
                }
              }
              JOINT lMid1
              {
                OFFSET 8.24714 1.18213 3.41376
                CHANNELS 3 Zrotation Xrotation Yrotation
                JOINT lMid2
                {
                  OFFSET 3.10165 -0.590103 1.0647
                  CHANNELS 3 Zrotation Xrotation Yrotation
                  End Site
                  {
                    OFFSET 2.48547 -0.328903 0.83742
                  }
                }
              }
              JOINT lRing1
              {
                OFFSET 8.82822 0.546677 1.51678
                CHANNELS 3 Zrotation Xrotation Yrotation
                JOINT lRing2
                {
                  OFFSET 2.60934 -0.819778 -0.0198488
                  CHANNELS 3 Zrotation Xrotation Yrotation
                  End Site
                  {
                    OFFSET 2.33842 -0.294052 0.168128
                  }
                }
              }
              JOINT lPinky1
              {
                OFFSET 8.27202 -0.0477905 -0.4584
                CHANNELS 3 Zrotation Xrotation Yrotation
                JOINT lPinky2
                {
                  OFFSET 1.82734 -0.647385 -0.700984
                  CHANNELS 3 Zrotation Xrotation Yrotation
                  End Site
                  {
                    OFFSET 1.69225 -0.51767 -0.607171
                  }
                }
              }
            }
          }
        }
      }
    }
  }
  JOINT rButtock
  {
    OFFSET -8.77824 4.35084 1.2192
    CHANNELS 3 Zrotation Xrotation Yrotation
    JOINT rThigh
    {
      OFFSET 0 -1.70687 -2.19456
      CHANNELS 3 Zrotation Xrotation Yrotation
      JOINT rShin
      {
        OFFSET 0 -36.8199 0.73152
        CHANNELS 3 Zrotation Xrotation Yrotation
        JOINT rFoot
        {
          OFFSET 0.73152 -45.1104 -5.12064
          CHANNELS 3 Zrotation Xrotation Yrotation
          End Site
          {
            OFFSET -1.1221 -3.69964 12.103
          }
        }
      }
    }
  }
  JOINT lButtock
  {
    OFFSET 8.77824 4.35084 1.2192
    CHANNELS 3 Zrotation Xrotation Yrotation
    JOINT lThigh
    {
      OFFSET 0 -1.70687 -2.19456
      CHANNELS 3 Zrotation Xrotation Yrotation
      JOINT lShin
      {
        OFFSET 0 -36.8199 0.73152
        CHANNELS 3 Zrotation Xrotation Yrotation
        JOINT lFoot
        {
          OFFSET -0.73152 -45.1104 -5.12064
          CHANNELS 3 Zrotation Xrotation Yrotation
          End Site
          {
            OFFSET 1.1221 -3.69964 12.103
          }
        }
      }
    }
  }
}
MOTION
Frames:	6
Frame Time:	0.03333
-0.30179998937001074 58.75130295753479 -2.1059999631688697 -8.987954139709473 -11.844991683959961 7.230020999908447 -1.0726317167282104 14.242121696472168 11.206965446472168 0.30096885561943054 -14.001450538635254 3.129401683807373 0.25616031885147095 13.075106620788574 10.334688186645508 3.3139045238494873 -22.558591842651367 21.038604736328125 -0.0 0.0 -0.0 -0.0 0.0 -0.0 -0.0 0.0 -0.0 20.070594787597656 76.0194091796875 46.899017333984375 -27.00208854675293 -44.00990295410156 91.46379852294922 -23.78314208984375 -74.70877075195312 -30.878498077392578 -0.0 0.0 -0.0 -0.0 0.0 -0.0 -0.0 0.0 -0.0 7.73087739944458 5.47489595413208 0.41732463240623474 -0.0 0.0 -0.0 2.9054994583129883 0.9650753736495972 0.10300876200199127 -0.0 0.0 -0.0 10.278595924377441 0.7317469120025635 0.026285577565431595 -0.0 0.0 -0.0 2.221662759780884 -0.7335850596427917 -0.20831839740276337 -0.0 0.0 -0.0 -62.85849380493164 -4.566754341125488 -39.14459991455078 28.076406478881836 -31.08829689025879 -68.98889923095703 0.0005539993289858103 -0.6691030263900757 0.09487762302160263 -0.0 0.0 -0.0 -0.0 0.0 -0.0 -0.0 0.0 -0.0 -7.73087739944458 5.47489595413208 -0.41732463240623474 -0.0 0.0 -0.0 -2.9054994583129883 0.9650753736495972 -0.10300876200199127 -0.0 0.0 -0.0 -10.278595924377441 0.7317469120025635 -0.026285577565431595 -0.0 0.0 -0.0 -2.221662759780884 -0.7335850596427917 0.20831839740276337 -0.0 0.0 -0.0 -8.250843048095703 -49.021488189697266 -21.47321891784668 -166.3045654296875 85.72358703613281 167.88954162597656 -27.135412216186523 -22.611186981201172 -38.625099182128906 -0.0 0.0 -0.0 89.33280181884766 -53.586204528808594 76.42709350585938 7.087032318115234 82.0174560546875 -6.955663681030273 0.43965739011764526 1.5515735149383545 0.5109072327613831
-0.6145999963109716 59.02379751205444 -2.688999978636275 -8.474027633666992 -10.913010597229004 7.442995071411133 -1.7601536512374878 14.32261848449707 11.164892196655273 0.35299625992774963 -13.885228157043457 3.0986926555633545 0.13142620027065277 12.992005348205566 10.016890525817871 3.2797536849975586 -23.098302841186523 20.451093673706055 -0.0 0.0 -0.0 -0.0 0.0 -0.0 -0.0 0.0 -0.0 20.785598754882812 74.44630432128906 46.39430236816406 -27.106712341308594 -43.718284606933594 90.89338684082031 -15.653109550476074 -69.70702362060547 -22.33086395263672 -0.0 0.0 -0.0 -0.0 0.0 -0.0 -0.0 0.0 -0.0 7.73087739944458 5.47489595413208 0.41732463240623474 -0.0 0.0 -0.0 2.9054994583129883 0.9650753736495972 0.10300876200199127 -0.0 0.0 -0.0 10.278595924377441 0.7317469120025635 0.026285577565431595 -0.0 0.0 -0.0 2.221662759780884 -0.7335850596427917 -0.20831839740276337 -0.0 0.0 -0.0 -62.6676025390625 -3.951589584350586 -39.9734001159668 27.996898651123047 -30.590496063232422 -68.1865005493164 0.015515179373323917 -3.5532147884368896 0.5002027153968811 -0.0 0.0 -0.0 -0.0 0.0 -0.0 -0.0 0.0 -0.0 -7.73087739944458 5.47489595413208 -0.41732463240623474 -0.0 0.0 -0.0 -2.9054994583129883 0.9650753736495972 -0.10300876200199127 -0.0 0.0 -0.0 -10.278595924377441 0.7317469120025635 -0.026285577565431595 -0.0 0.0 -0.0 -2.221662759780884 -0.7335850596427917 0.20831839740276337 -0.0 0.0 -0.0 -6.368744373321533 -49.71409606933594 -18.99102210998535 -165.07241821289062 86.09685516357422 166.65545654296875 -27.285783767700195 -21.894195556640625 -39.2576904296875 -0.0 0.0 -0.0 88.22639465332031 -55.110496520996094 75.53489685058594 5.903565883636475 80.63365173339844 -5.74789571762085 0.4553720951080322 2.463993549346924 0.840828537940979
-0.985400002514325 59.37979817390442 -3.323999970962177 -8.064985275268555 -9.836989402770996 7.679974555969238 -2.3689842224121094 14.40820598602295 11.109192848205566 0.38379353284835815 -13.753149032592773 3.0648157596588135 -0.025571705773472786 12.889908790588379 9.641289710998535 3.2887556552886963 -23.632505416870117 19.75879669189453 -0.0 0.0 -0.0 -0.0 0.0 -0.0 -0.0 0.0 -0.0 21.393203735351562 72.68509674072266 45.9866828918457 -27.241397857666016 -43.33330154418945 90.13389587402344 -9.875893592834473 -63.03809356689453 -16.03841209411621 -0.0 0.0 -0.0 -0.0 0.0 -0.0 -0.0 0.0 -0.0 7.73087739944458 5.47489595413208 0.41732463240623474 -0.0 0.0 -0.0 2.9054994583129883 0.9650753736495972 0.10300876200199127 -0.0 0.0 -0.0 10.278595924377441 0.7317469120025635 0.026285577565431595 -0.0 0.0 -0.0 2.221662759780884 -0.7335850596427917 -0.20831839740276337 -0.0 0.0 -0.0 -62.468605041503906 -3.106659412384033 -40.88999938964844 27.90740394592285 -30.086288452148438 -67.38639831542969 0.05757351592183113 -6.830946445465088 0.9646491408348083 -0.0 0.0 -0.0 -0.0 0.0 -0.0 -0.0 0.0 -0.0 -7.73087739944458 5.47489595413208 -0.41732463240623474 -0.0 0.0 -0.0 -2.9054994583129883 0.9650753736495972 -0.10300876200199127 -0.0 0.0 -0.0 -10.278595924377441 0.7317469120025635 -0.026285577565431595 -0.0 0.0 -0.0 -2.221662759780884 -0.7335850596427917 0.20831839740276337 -0.0 0.0 -0.0 -4.272315502166748 -50.280792236328125 -16.341398239135742 -162.8714599609375 86.61626434326172 164.4453125 -27.310897827148438 -21.169200897216797 -39.77949905395508 -0.0 0.0 -0.0 86.92070770263672 -56.71590805053711 74.35511016845703 4.880483627319336 78.98281860351562 -4.697359085083008 0.44821277260780334 3.480236768722534 1.0912795066833496
-1.4572999869187697 59.822601079940796 -4.004999987591873 -7.704996585845947 -8.52199649810791 7.958968639373779 -2.6810715198516846 14.507088661193848 11.032614707946777 0.28261837363243103 -13.678772926330566 3.0203375816345215 -0.19505047798156738 12.87458610534668 9.21386432647705 3.2729337215423584 -24.08213996887207 18.948949813842773 -0.0 0.0 -0.0 -0.0 0.0 -0.0 -0.0 0.0 -0.0 22.183197021484375 70.85010528564453 45.351318359375 -27.4204044342041 -42.78059768676758 89.05938720703125 -5.590991020202637 -53.97395324707031 -11.065103530883789 -0.0 0.0 -0.0 -0.0 0.0 -0.0 -0.0 0.0 -0.0 7.73087739944458 5.47489595413208 0.41732463240623474 -0.0 0.0 -0.0 2.9054994583129883 0.9650753736495972 0.10300876200199127 -0.0 0.0 -0.0 10.278595924377441 0.7317469120025635 0.026285577565431595 -0.0 0.0 -0.0 2.221662759780884 -0.7335850596427917 -0.20831839740276337 -0.0 0.0 -0.0 -62.3170051574707 -1.9282922744750977 -41.7926025390625 27.8251895904541 -29.65801239013672 -66.70779418945312 0.1364036351442337 -10.474637031555176 1.488001823425293 -0.0 0.0 -0.0 -0.0 0.0 -0.0 -0.0 0.0 -0.0 -7.73087739944458 5.47489595413208 -0.41732463240623474 -0.0 0.0 -0.0 -2.9054994583129883 0.9650753736495972 -0.10300876200199127 -0.0 0.0 -0.0 -10.278595924377441 0.7317469120025635 -0.026285577565431595 -0.0 0.0 -0.0 -2.221662759780884 -0.7335850596427917 0.20831839740276337 -0.0 0.0 -0.0 -1.994865894317627 -50.62929916381836 -13.702608108520508 -158.49993896484375 87.31495666503906 160.06402587890625 -27.25130271911621 -20.64059829711914 -40.105995178222656 -0.0 0.0 -0.0 85.47461700439453 -58.41081237792969 72.8650131225586 4.025367259979248 77.0676040649414 -3.812706232070923 0.42140060663223267 4.584718704223633 1.255651593208313
-2.0167000089486464 60.33959984779358 -4.741000003923546 -7.581034183502197 -6.958009719848633 8.227982521057129 -2.7884037494659424 14.616506576538086 10.8673095703125 0.16552454233169556 -13.592098236083984 2.9570226669311523 -0.39587080478668213 12.854783058166504 8.730768203735352 3.293105125427246 -24.494617462158203 18.035978317260742 -0.0 0.0 -0.0 -0.0 0.0 -0.0 -0.0 0.0 -0.0 22.87610626220703 68.82890319824219 44.745906829833984 -27.60150146484375 -42.145503997802734 87.86039733886719 -3.4072105884552 -45.27749252319336 -8.158317565917969 -0.0 0.0 -0.0 -0.0 0.0 -0.0 -0.0 0.0 -0.0 7.73087739944458 5.47489595413208 0.41732463240623474 -0.0 0.0 -0.0 2.9054994583129883 0.9650753736495972 0.10300876200199127 -0.0 0.0 -0.0 10.278595924377441 0.7317469120025635 0.026285577565431595 -0.0 0.0 -0.0 2.221662759780884 -0.7335850596427917 -0.20831839740276337 -0.0 0.0 -0.0 -62.13619613647461 -0.4854615330696106 -42.72529602050781 27.73960304260254 -29.23628807067871 -66.03150939941406 0.23425188660621643 -13.654012680053711 1.9564629793167114 -0.0 0.0 -0.0 -0.0 0.0 -0.0 -0.0 0.0 -0.0 -7.73087739944458 5.47489595413208 -0.41732463240623474 -0.0 0.0 -0.0 -2.9054994583129883 0.9650753736495972 -0.10300876200199127 -0.0 0.0 -0.0 -10.278595924377441 0.7317469120025635 -0.026285577565431595 -0.0 0.0 -0.0 -2.221662759780884 -0.7335850596427917 0.20831839740276337 -0.0 0.0 -0.0 0.3375139534473419 -50.82430648803711 -11.16399097442627 -148.52919006347656 88.14321899414062 150.07308959960938 -27.043701171875 -20.07889747619629 -40.30500030517578 -0.0 0.0 -0.0 83.789794921875 -60.230709075927734 70.92838287353516 3.305784225463867 74.85540008544922 -3.059995651245117 0.38082072138786316 5.803997993469238 1.3383234739303589
-2.643200006400548 60.921502113342285 -5.527000028450857 -7.559981822967529 -5.131966590881348 8.53403091430664 -2.7147932052612305 14.738292694091797 10.531388282775879 0.09526026993989944 -13.43588638305664 2.8590757846832275 -0.6685179471969604 12.736302375793457 8.184320449829102 3.418506622314453 -24.879587173461914 17.02779769897461 -0.0 0.0 -0.0 -0.0 0.0 -0.0 -0.0 0.0 -0.0 23.239782333374023 66.5055923461914 44.3446044921875 -27.756895065307617 -41.52960205078125 86.72048950195312 -2.5438809394836426 -40.262454986572266 -6.862144470214844 -0.0 0.0 -0.0 -0.0 0.0 -0.0 -0.0 0.0 -0.0 7.73087739944458 5.47489595413208 0.41732463240623474 -0.0 0.0 -0.0 2.9054994583129883 0.9650753736495972 0.10300876200199127 -0.0 0.0 -0.0 10.278595924377441 0.7317469120025635 0.026285577565431595 -0.0 0.0 -0.0 2.221662759780884 -0.7335850596427917 -0.20831839740276337 -0.0 0.0 -0.0 -61.83499526977539 1.2057898044586182 -43.7349967956543 27.632497787475586 -28.743804931640625 -65.24169158935547 0.28855523467063904 -15.110783576965332 2.1752827167510986 -0.0 0.0 -0.0 -0.0 0.0 -0.0 -0.0 0.0 -0.0 -7.73087739944458 5.47489595413208 -0.41732463240623474 -0.0 0.0 -0.0 -2.9054994583129883 0.9650753736495972 -0.10300876200199127 -0.0 0.0 -0.0 -10.278595924377441 0.7317469120025635 -0.026285577565431595 -0.0 0.0 -0.0 -2.221662759780884 -0.7335850596427917 0.20831839740276337 -0.0 0.0 -0.0 2.5925793647766113 -50.938385009765625 -8.897878646850586 -116.88681030273438 88.93118286132812 118.39167785644531 -26.612506866455078 -19.20949935913086 -40.48039627075195 -0.0 0.0 -0.0 81.8069839477539 -62.21009063720703 68.43778228759766 2.709306478500366 72.32612609863281 -2.42793607711792 0.33387860655784607 7.147533893585205 1.2200815677642822
